<?xml version="1.0" encoding="UTF-8"?>
<svg xmlns="http://www.w3.org/2000/svg" xmlns:xlink="http://www.w3.org/1999/xlink" width="135pt" height="135pt" viewBox="0 0 135 135" version="1.1">
<g id="surface1">
<path style=" stroke:none;fill-rule:nonzero;fill:rgb(0%,0%,0%);fill-opacity:1;" d="M 33.09375 33.171875 C 31.640625 33.171875 30.460938 34.351562 30.460938 35.804688 C 30.460938 37.257812 31.640625 38.4375 33.09375 38.4375 C 34.542969 38.4375 35.726562 37.257812 35.726562 35.804688 C 35.726562 34.351562 34.542969 33.171875 33.09375 33.171875 Z M 33.09375 33.171875 "/>
<path style=" stroke:none;fill-rule:nonzero;fill:rgb(0%,0%,0%);fill-opacity:1;" d="M 56.789062 82.402344 L 48.890625 82.402344 L 48.890625 74.503906 C 48.890625 73.050781 47.707031 71.871094 46.257812 71.871094 C 44.804688 71.871094 43.625 73.050781 43.625 74.503906 L 43.625 82.402344 L 35.726562 82.402344 C 34.273438 82.402344 33.09375 83.582031 33.09375 85.035156 C 33.09375 86.488281 34.273438 87.667969 35.726562 87.667969 L 43.625 87.667969 L 43.625 95.566406 C 43.625 97.019531 44.804688 98.199219 46.257812 98.199219 C 47.707031 98.199219 48.890625 97.019531 48.890625 95.566406 L 48.890625 87.667969 L 56.789062 87.667969 C 58.238281 87.667969 59.421875 86.488281 59.421875 85.035156 C 59.421875 83.582031 58.238281 82.402344 56.789062 82.402344 Z M 56.789062 82.402344 "/>
<path style=" stroke:none;fill-rule:nonzero;fill:rgb(0%,0%,0%);fill-opacity:1;" d="M 127.84375 84.773438 C 122.023438 74.691406 109.15625 71.242188 99.074219 77.0625 L 88.378906 83.238281 L 88.378906 60.375 C 88.378906 57.550781 87.445312 54.746094 85.746094 52.476562 L 72.585938 34.925781 L 72.585938 27.453125 C 75.648438 26.367188 77.847656 23.441406 77.847656 20.007812 L 77.847656 7.898438 C 77.847656 3.542969 74.304688 0 69.949219 0 L 22.5625 0 C 18.207031 0 14.664062 3.542969 14.664062 7.898438 L 14.664062 20.007812 C 14.664062 23.441406 16.863281 26.367188 19.929688 27.453125 L 19.929688 34.925781 L 6.765625 52.480469 C 5.070312 54.746094 4.132812 57.550781 4.132812 60.375 L 4.132812 111.363281 C 4.132812 118.621094 10.039062 124.523438 17.296875 124.523438 L 59.605469 124.523438 C 65.507812 134.421875 78.238281 137.730469 88.214844 131.96875 L 120.136719 113.539062 C 130.128906 107.773438 133.691406 94.910156 127.84375 84.773438 Z M 19.929688 7.898438 C 19.929688 6.445312 21.109375 5.265625 22.5625 5.265625 L 69.949219 5.265625 C 71.402344 5.265625 72.582031 6.445312 72.582031 7.898438 L 72.582031 20.007812 C 72.582031 21.460938 71.402344 22.640625 69.949219 22.640625 L 22.5625 22.640625 C 21.109375 22.640625 19.929688 21.457031 19.929688 20.007812 Z M 10.976562 55.636719 L 24.667969 37.382812 C 25.011719 36.925781 25.195312 36.375 25.195312 35.804688 L 25.195312 27.90625 L 67.316406 27.90625 L 67.316406 33.171875 L 43.625 33.171875 C 42.171875 33.171875 40.992188 34.351562 40.992188 35.804688 C 40.992188 37.257812 42.171875 38.4375 43.625 38.4375 L 68.632812 38.4375 L 81.535156 55.636719 C 82.375 56.761719 82.902344 58.109375 83.058594 59.5 L 9.453125 59.5 C 9.613281 58.105469 10.136719 56.761719 10.976562 55.636719 Z M 17.296875 119.257812 C 12.941406 119.257812 9.398438 115.71875 9.398438 111.363281 L 9.398438 108.703125 L 57.230469 108.703125 C 56.398438 112.117188 56.402344 115.765625 57.359375 119.257812 Z M 59.296875 103.464844 L 9.398438 103.464844 L 9.398438 64.765625 L 83.113281 64.765625 L 83.113281 86.277344 L 67.15625 95.492188 C 63.828125 97.417969 61.136719 100.152344 59.296875 103.464844 Z M 85.585938 127.410156 C 78.027344 131.773438 68.375 129.195312 64.007812 121.632812 C 59.621094 114 62.28125 104.390625 69.789062 100.054688 L 84.078125 91.800781 L 99.875 119.160156 Z M 117.503906 108.984375 L 104.433594 116.527344 L 88.636719 89.167969 L 101.707031 81.625 C 109.269531 77.257812 118.917969 79.84375 123.285156 87.402344 C 127.667969 95.003906 125.003906 104.652344 117.503906 108.984375 Z M 117.503906 108.984375 "/>
</g>
</svg>
