<?xml version="1.0" encoding="UTF-8"?>
<svg xmlns="http://www.w3.org/2000/svg" xmlns:xlink="http://www.w3.org/1999/xlink" width="128pt" height="128pt" viewBox="0 0 128 128" version="1.1">
<g id="surface1">
<path style=" stroke:none;fill-rule:nonzero;fill:rgb(92.156863%,90.588235%,94.901961%);fill-opacity:1;" d="M 79.140625 57.976562 L 48.859375 57.976562 C 48.171875 57.976562 47.609375 57.414062 47.609375 56.726562 C 47.609375 56.035156 48.171875 55.476562 48.859375 55.476562 L 79.140625 55.476562 C 79.828125 55.476562 80.390625 56.035156 80.390625 56.726562 C 80.390625 57.414062 79.828125 57.976562 79.140625 57.976562 Z M 79.140625 57.976562 "/>
<path style=" stroke:none;fill-rule:nonzero;fill:rgb(92.156863%,90.588235%,94.901961%);fill-opacity:1;" d="M 79.140625 87.164062 L 48.859375 87.164062 C 48.171875 87.164062 47.609375 86.601562 47.609375 85.914062 C 47.609375 85.222656 48.171875 84.664062 48.859375 84.664062 L 79.140625 84.664062 C 79.828125 84.664062 80.390625 85.222656 80.390625 85.914062 C 80.390625 86.601562 79.828125 87.164062 79.140625 87.164062 Z M 79.140625 87.164062 "/>
<path style=" stroke:none;fill-rule:nonzero;fill:rgb(92.156863%,90.588235%,94.901961%);fill-opacity:1;" d="M 58.1875 45.328125 C 57.5 45.328125 56.9375 44.765625 56.9375 44.078125 L 56.9375 36.492188 C 56.9375 35.800781 57.5 35.242188 58.1875 35.242188 C 58.878906 35.242188 59.4375 35.800781 59.4375 36.492188 L 59.4375 44.078125 C 59.4375 44.765625 58.878906 45.328125 58.1875 45.328125 Z M 58.1875 45.328125 "/>
<path style=" stroke:none;fill-rule:nonzero;fill:rgb(92.156863%,90.588235%,94.901961%);fill-opacity:1;" d="M 64 45.328125 C 63.308594 45.328125 62.75 44.765625 62.75 44.078125 L 62.75 36.492188 C 62.75 35.800781 63.308594 35.242188 64 35.242188 C 64.691406 35.242188 65.25 35.800781 65.25 36.492188 L 65.25 44.078125 C 65.25 44.765625 64.691406 45.328125 64 45.328125 Z M 64 45.328125 "/>
<path style=" stroke:none;fill-rule:nonzero;fill:rgb(92.156863%,90.588235%,94.901961%);fill-opacity:1;" d="M 69.8125 45.328125 C 69.121094 45.328125 68.5625 44.765625 68.5625 44.078125 L 68.5625 36.492188 C 68.5625 35.800781 69.121094 35.242188 69.8125 35.242188 C 70.5 35.242188 71.0625 35.800781 71.0625 36.492188 L 71.0625 44.078125 C 71.0625 44.765625 70.5 45.328125 69.8125 45.328125 Z M 69.8125 45.328125 "/>
<path style=" stroke:none;fill-rule:nonzero;fill:rgb(92.941176%,60.392157%,73.72549%);fill-opacity:1;" d="M 66.636719 81.476562 L 61.359375 81.476562 C 60.671875 81.476562 60.109375 80.921875 60.109375 80.226562 L 60.109375 75.265625 L 55.148438 75.265625 C 54.457031 75.265625 53.898438 74.707031 53.898438 74.015625 L 53.898438 68.742188 C 53.898438 68.050781 54.457031 67.492188 55.148438 67.492188 L 60.109375 67.492188 L 60.109375 62.527344 C 60.109375 61.835938 60.671875 61.277344 61.359375 61.277344 L 66.636719 61.277344 C 67.328125 61.277344 67.886719 61.835938 67.886719 62.527344 L 67.886719 67.492188 L 72.851562 67.492188 C 73.539062 67.492188 74.101562 68.050781 74.101562 68.742188 L 74.101562 74.015625 C 74.101562 74.707031 73.539062 75.265625 72.851562 75.265625 L 67.886719 75.265625 L 67.886719 80.226562 C 67.886719 80.921875 67.328125 81.476562 66.636719 81.476562 Z M 62.613281 78.976562 L 65.390625 78.976562 L 65.390625 74.015625 C 65.390625 73.328125 65.949219 72.765625 66.640625 72.765625 L 71.601562 72.765625 L 71.601562 69.992188 L 66.640625 69.992188 C 65.949219 69.992188 65.390625 69.429688 65.390625 68.742188 L 65.390625 63.777344 L 62.613281 63.777344 L 62.613281 68.742188 C 62.613281 69.429688 62.054688 69.992188 61.363281 69.992188 L 56.398438 69.992188 L 56.398438 72.765625 L 61.363281 72.765625 C 62.054688 72.765625 62.613281 73.328125 62.613281 74.015625 Z M 62.613281 78.976562 "/>
<path style=" stroke:none;fill-rule:nonzero;fill:rgb(92.156863%,90.588235%,94.901961%);fill-opacity:1;" d="M 24.65625 72.9375 C 24.070312 72.9375 23.546875 72.523438 23.433594 71.921875 C 22.929688 69.332031 22.671875 66.664062 22.671875 64 C 22.671875 41.210938 41.210938 22.671875 64 22.671875 C 77.75 22.671875 90.5625 29.484375 98.265625 40.894531 C 98.65625 41.464844 98.503906 42.242188 97.929688 42.628906 C 97.359375 43.015625 96.582031 42.867188 96.195312 42.292969 C 88.953125 31.574219 76.917969 25.171875 64 25.171875 C 42.589844 25.171875 25.171875 42.589844 25.171875 64 C 25.171875 66.507812 25.414062 69.011719 25.886719 71.445312 C 26.019531 72.125 25.578125 72.78125 24.898438 72.914062 C 24.820312 72.929688 24.738281 72.9375 24.65625 72.9375 Z M 24.65625 72.9375 "/>
<path style=" stroke:none;fill-rule:nonzero;fill:rgb(92.156863%,90.588235%,94.901961%);fill-opacity:1;" d="M 64 105.328125 C 50.636719 105.328125 38.035156 98.8125 30.285156 87.90625 C 29.886719 87.34375 30.019531 86.5625 30.582031 86.164062 C 31.144531 85.765625 31.925781 85.894531 32.324219 86.460938 C 39.605469 96.707031 51.445312 102.828125 64 102.828125 C 85.410156 102.828125 102.828125 85.410156 102.828125 64 C 102.828125 61.863281 102.652344 59.71875 102.304688 57.628906 C 102.195312 56.945312 102.65625 56.304688 103.335938 56.191406 C 104.015625 56.078125 104.660156 56.539062 104.773438 57.21875 C 105.140625 59.445312 105.328125 61.726562 105.328125 64 C 105.328125 86.789062 86.789062 105.328125 64 105.328125 Z M 64 105.328125 "/>
<path style=" stroke:none;fill-rule:nonzero;fill:rgb(92.941176%,60.392157%,73.72549%);fill-opacity:1;" d="M 64 18.046875 C 63.308594 18.046875 62.75 17.488281 62.75 16.796875 L 62.75 7.320312 C 62.75 6.628906 63.308594 6.070312 64 6.070312 C 64.691406 6.070312 65.25 6.628906 65.25 7.320312 L 65.25 16.796875 C 65.25 17.488281 64.691406 18.046875 64 18.046875 Z M 64 18.046875 "/>
<path style=" stroke:none;fill-rule:nonzero;fill:rgb(92.941176%,60.392157%,73.72549%);fill-opacity:1;" d="M 64 31.820312 C 63.308594 31.820312 62.75 31.257812 62.75 30.570312 L 62.75 21.796875 C 62.75 21.105469 63.308594 20.546875 64 20.546875 C 64.691406 20.546875 65.25 21.105469 65.25 21.796875 L 65.25 30.570312 C 65.25 31.257812 64.691406 31.820312 64 31.820312 Z M 64 31.820312 "/>
<path style=" stroke:none;fill-rule:nonzero;fill:rgb(92.941176%,60.392157%,73.72549%);fill-opacity:1;" d="M 64 107.453125 C 63.308594 107.453125 62.75 106.894531 62.75 106.203125 L 62.75 97.429688 C 62.75 96.742188 63.308594 96.179688 64 96.179688 C 64.691406 96.179688 65.25 96.742188 65.25 97.429688 L 65.25 106.203125 C 65.25 106.894531 64.691406 107.453125 64 107.453125 Z M 64 107.453125 "/>
<path style=" stroke:none;fill-rule:nonzero;fill:rgb(92.941176%,60.392157%,73.72549%);fill-opacity:1;" d="M 64 121.929688 C 63.308594 121.929688 62.75 121.371094 62.75 120.679688 L 62.75 111.203125 C 62.75 110.511719 63.308594 109.953125 64 109.953125 C 64.691406 109.953125 65.25 110.511719 65.25 111.203125 L 65.25 120.679688 C 65.25 121.371094 64.691406 121.929688 64 121.929688 Z M 64 121.929688 "/>
<path style=" stroke:none;fill-rule:nonzero;fill:rgb(92.941176%,60.392157%,73.72549%);fill-opacity:1;" d="M 120.679688 65.25 L 99.320312 65.25 C 98.632812 65.25 98.070312 64.691406 98.070312 64 C 98.070312 63.308594 98.632812 62.75 99.320312 62.75 L 120.679688 62.75 C 121.371094 62.75 121.929688 63.308594 121.929688 64 C 121.929688 64.691406 121.371094 65.25 120.679688 65.25 Z M 120.679688 65.25 "/>
<path style=" stroke:none;fill-rule:nonzero;fill:rgb(92.941176%,60.392157%,73.72549%);fill-opacity:1;" d="M 94.320312 65.25 L 87.429688 65.25 C 86.742188 65.25 86.179688 64.691406 86.179688 64 C 86.179688 63.308594 86.742188 62.75 87.429688 62.75 L 94.320312 62.75 C 95.011719 62.75 95.570312 63.308594 95.570312 64 C 95.570312 64.691406 95.011719 65.25 94.320312 65.25 Z M 94.320312 65.25 "/>
<path style=" stroke:none;fill-rule:nonzero;fill:rgb(92.941176%,60.392157%,73.72549%);fill-opacity:1;" d="M 40.570312 65.25 L 33.679688 65.25 C 32.988281 65.25 32.429688 64.691406 32.429688 64 C 32.429688 63.308594 32.988281 62.75 33.679688 62.75 L 40.570312 62.75 C 41.257812 62.75 41.820312 63.308594 41.820312 64 C 41.820312 64.691406 41.257812 65.25 40.570312 65.25 Z M 40.570312 65.25 "/>
<path style=" stroke:none;fill-rule:nonzero;fill:rgb(92.941176%,60.392157%,73.72549%);fill-opacity:1;" d="M 28.679688 65.25 L 7.320312 65.25 C 6.628906 65.25 6.070312 64.691406 6.070312 64 C 6.070312 63.308594 6.628906 62.75 7.320312 62.75 L 28.679688 62.75 C 29.367188 62.75 29.929688 63.308594 29.929688 64 C 29.929688 64.691406 29.367188 65.25 28.679688 65.25 Z M 28.679688 65.25 "/>
<path style=" stroke:none;fill-rule:nonzero;fill:rgb(92.941176%,60.392157%,73.72549%);fill-opacity:1;" d="M 83.921875 45.328125 C 83.601562 45.328125 83.28125 45.203125 83.039062 44.960938 C 82.550781 44.472656 82.550781 43.679688 83.039062 43.195312 L 103.195312 23.039062 C 103.683594 22.546875 104.476562 22.546875 104.960938 23.039062 C 105.453125 23.523438 105.453125 24.316406 104.960938 24.804688 L 84.804688 44.960938 C 84.5625 45.203125 84.242188 45.328125 83.921875 45.328125 Z M 83.921875 45.328125 "/>
<path style=" stroke:none;fill-rule:nonzero;fill:rgb(92.941176%,60.392157%,73.72549%);fill-opacity:1;" d="M 23.921875 105.328125 C 23.601562 105.328125 23.28125 105.207031 23.035156 104.964844 C 22.546875 104.476562 22.546875 103.683594 23.035156 103.195312 L 39.476562 86.757812 C 39.964844 86.269531 40.757812 86.269531 41.242188 86.757812 C 41.730469 87.246094 41.730469 88.035156 41.242188 88.523438 L 24.804688 104.964844 C 24.5625 105.207031 24.242188 105.328125 23.921875 105.328125 Z M 23.921875 105.328125 "/>
<path style=" stroke:none;fill-rule:nonzero;fill:rgb(92.941176%,60.392157%,73.72549%);fill-opacity:1;" d="M 104.078125 105.328125 C 103.757812 105.328125 103.4375 105.207031 103.195312 104.964844 L 86.757812 88.523438 C 86.265625 88.035156 86.265625 87.246094 86.757812 86.757812 C 87.242188 86.269531 88.035156 86.269531 88.523438 86.757812 L 104.960938 103.195312 C 105.453125 103.683594 105.453125 104.476562 104.960938 104.964844 C 104.71875 105.207031 104.398438 105.328125 104.078125 105.328125 Z M 104.078125 105.328125 "/>
<path style=" stroke:none;fill-rule:nonzero;fill:rgb(92.941176%,60.392157%,73.72549%);fill-opacity:1;" d="M 44.078125 45.328125 C 43.757812 45.328125 43.4375 45.203125 43.195312 44.960938 L 23.039062 24.804688 C 22.546875 24.316406 22.546875 23.523438 23.039062 23.039062 C 23.523438 22.546875 24.316406 22.546875 24.804688 23.039062 L 44.960938 43.195312 C 45.449219 43.679688 45.449219 44.472656 44.960938 44.960938 C 44.71875 45.203125 44.398438 45.328125 44.078125 45.328125 Z M 44.078125 45.328125 "/>
<path style=" stroke:none;fill-rule:nonzero;fill:rgb(92.941176%,60.392157%,73.72549%);fill-opacity:1;" d="M 107.453125 49.273438 L 100.824219 49.273438 C 100.132812 49.273438 99.574219 48.714844 99.574219 48.023438 C 99.574219 47.335938 100.132812 46.773438 100.824219 46.773438 L 107.453125 46.773438 C 108.144531 46.773438 108.703125 47.335938 108.703125 48.023438 C 108.703125 48.714844 108.144531 49.273438 107.453125 49.273438 Z M 107.453125 49.273438 "/>
<path style=" stroke:none;fill-rule:nonzero;fill:rgb(92.941176%,60.392157%,73.72549%);fill-opacity:1;" d="M 27.640625 82.183594 L 21.015625 82.183594 C 20.324219 82.183594 19.765625 81.625 19.765625 80.933594 C 19.765625 80.242188 20.324219 79.683594 21.015625 79.683594 L 27.640625 79.683594 C 28.332031 79.683594 28.890625 80.242188 28.890625 80.933594 C 28.890625 81.625 28.332031 82.183594 27.640625 82.183594 Z M 27.640625 82.183594 "/>
<path style=" stroke:none;fill-rule:nonzero;fill:rgb(92.941176%,60.392157%,73.72549%);fill-opacity:1;" d="M 46.515625 17.425781 L 41.539062 17.425781 C 40.851562 17.425781 40.289062 16.867188 40.289062 16.175781 C 40.289062 15.484375 40.851562 14.925781 41.539062 14.925781 L 46.515625 14.925781 C 47.207031 14.925781 47.765625 15.484375 47.765625 16.175781 C 47.765625 16.867188 47.207031 17.425781 46.515625 17.425781 Z M 46.515625 17.425781 "/>
<path style=" stroke:none;fill-rule:nonzero;fill:rgb(51.764706%,43.529412%,45.882353%);fill-opacity:1;" d="M 80.390625 88.554688 L 80.390625 54.609375 C 80.390625 51.476562 77.839844 48.925781 74.707031 48.925781 L 74.515625 48.925781 L 74.515625 45.328125 L 75.332031 45.328125 C 76.023438 45.328125 76.582031 44.765625 76.582031 44.078125 L 76.582031 36.492188 C 76.582031 35.804688 76.023438 35.242188 75.332031 35.242188 L 52.667969 35.242188 C 51.976562 35.242188 51.417969 35.804688 51.417969 36.492188 L 51.417969 44.078125 C 51.417969 44.765625 51.976562 45.328125 52.667969 45.328125 L 53.484375 45.328125 L 53.484375 48.925781 L 53.292969 48.925781 C 50.160156 48.925781 47.609375 51.476562 47.609375 54.609375 L 47.609375 88.554688 C 47.609375 90.871094 49.496094 92.757812 51.816406 92.757812 L 76.183594 92.757812 C 78.503906 92.757812 80.390625 90.871094 80.390625 88.554688 Z M 53.917969 37.742188 L 74.082031 37.742188 L 74.082031 42.828125 L 53.917969 42.828125 Z M 55.984375 45.328125 L 72.015625 45.328125 L 72.015625 48.925781 L 55.984375 48.925781 Z M 77.890625 88.554688 C 77.890625 89.492188 77.125 90.257812 76.183594 90.257812 L 51.816406 90.257812 C 50.875 90.257812 50.109375 89.492188 50.109375 88.554688 L 50.109375 54.609375 C 50.109375 52.855469 51.539062 51.425781 53.292969 51.425781 L 74.707031 51.425781 C 76.460938 51.425781 77.890625 52.855469 77.890625 54.609375 Z M 77.890625 88.554688 "/>
<path style=" stroke:none;fill-rule:nonzero;fill:rgb(51.764706%,43.529412%,45.882353%);fill-opacity:1;" d="M 104.078125 37.636719 C 98.351562 37.636719 93.6875 42.296875 93.6875 48.023438 C 93.6875 53.753906 98.351562 58.414062 104.078125 58.414062 C 109.808594 58.414062 114.46875 53.753906 114.46875 48.023438 C 114.46875 42.296875 109.808594 37.636719 104.078125 37.636719 Z M 104.078125 55.914062 C 99.726562 55.914062 96.1875 52.375 96.1875 48.023438 C 96.1875 43.675781 99.726562 40.136719 104.078125 40.136719 C 108.429688 40.136719 111.96875 43.675781 111.96875 48.023438 C 111.96875 52.375 108.429688 55.914062 104.078125 55.914062 Z M 104.078125 55.914062 "/>
<path style=" stroke:none;fill-rule:nonzero;fill:rgb(51.764706%,43.529412%,45.882353%);fill-opacity:1;" d="M 24.265625 70.546875 C 18.539062 70.546875 13.878906 75.207031 13.878906 80.933594 C 13.878906 86.664062 18.539062 91.324219 24.265625 91.324219 C 29.996094 91.324219 34.65625 86.664062 34.65625 80.933594 C 34.65625 75.207031 29.996094 70.546875 24.265625 70.546875 Z M 24.265625 88.824219 C 19.917969 88.824219 16.378906 85.285156 16.378906 80.933594 C 16.378906 76.585938 19.917969 73.046875 24.265625 73.046875 C 28.617188 73.046875 32.15625 76.585938 32.15625 80.933594 C 32.15625 85.285156 28.617188 88.824219 24.265625 88.824219 Z M 24.265625 88.824219 "/>
<path style=" stroke:none;fill-rule:nonzero;fill:rgb(51.764706%,43.529412%,45.882353%);fill-opacity:1;" d="M 52.09375 16.175781 C 52.09375 11.703125 48.457031 8.066406 43.984375 8.066406 C 39.511719 8.066406 35.875 11.703125 35.875 16.175781 C 35.875 20.648438 39.511719 24.289062 43.984375 24.289062 C 48.457031 24.289062 52.09375 20.648438 52.09375 16.175781 Z M 43.984375 21.789062 C 40.890625 21.789062 38.375 19.269531 38.375 16.175781 C 38.375 13.085938 40.890625 10.566406 43.984375 10.566406 C 47.078125 10.566406 49.59375 13.085938 49.59375 16.175781 C 49.59375 19.269531 47.078125 21.789062 43.984375 21.789062 Z M 43.984375 21.789062 "/>
<path style=" stroke:none;fill-rule:nonzero;fill:rgb(51.764706%,43.529412%,45.882353%);fill-opacity:1;" d="M 85.648438 103.710938 C 81.179688 103.710938 77.539062 107.351562 77.539062 111.824219 C 77.539062 116.296875 81.175781 119.933594 85.648438 119.933594 C 90.121094 119.933594 93.757812 116.296875 93.757812 111.824219 C 93.757812 107.351562 90.121094 103.710938 85.648438 103.710938 Z M 85.648438 117.433594 C 82.554688 117.433594 80.039062 114.914062 80.039062 111.824219 C 80.039062 108.730469 82.554688 106.210938 85.648438 106.210938 C 88.742188 106.210938 91.257812 108.730469 91.257812 111.824219 C 91.257812 114.914062 88.742188 117.433594 85.648438 117.433594 Z M 85.648438 117.433594 "/>
<path style=" stroke:none;fill-rule:nonzero;fill:rgb(92.941176%,60.392157%,73.72549%);fill-opacity:1;" d="M 88.179688 113.074219 L 83.207031 113.074219 C 82.515625 113.074219 81.957031 112.515625 81.957031 111.824219 C 81.957031 111.132812 82.515625 110.574219 83.207031 110.574219 L 88.179688 110.574219 C 88.871094 110.574219 89.429688 111.132812 89.429688 111.824219 C 89.429688 112.515625 88.871094 113.074219 88.179688 113.074219 Z M 88.179688 113.074219 "/>
</g>
</svg>
